<svg width="24" height="24" viewBox="0 0 24 24" fill="none" xmlns="http://www.w3.org/2000/svg">
<path d="M11.001 10H13.001V15H11.001V10ZM11 16H13V18H11V16Z" fill="#6E232F"/>
<path d="M13.7678 4.19994C13.4198 3.54494 12.7418 3.13794 11.9998 3.13794C11.2578 3.13794 10.5798 3.54494 10.2318 4.20094L2.89383 18.0639C2.73139 18.3685 2.65095 18.7101 2.66042 19.0551C2.66988 19.4001 2.76893 19.7368 2.94783 20.0319C3.12423 20.3286 3.37511 20.574 3.67558 20.7438C3.97606 20.9136 4.31571 21.0019 4.66083 20.9999H19.3388C20.0468 20.9999 20.6878 20.6379 21.0528 20.0319C21.2317 19.7368 21.3308 19.4001 21.3403 19.0551C21.3497 18.7101 21.2693 18.3685 21.1068 18.0639L13.7678 4.19994ZM4.66083 18.9999L11.9998 5.13694L19.3438 18.9999H4.66083Z" fill="#6E232F"/>
</svg>
