<svg width="39" height="39" viewBox="0 0 39 39" fill="none" xmlns="http://www.w3.org/2000/svg">
<path d="M19.4874 1.52881C19.0106 1.52959 18.5512 1.70862 18.1996 2.03074L0.575545 17.5695L0.559165 17.5843C-0.00789493 18.1089 -0.139715 18.9649 0.145765 19.5897C0.431245 20.2145 1.10049 20.6618 1.85943 20.6622H6.40371V35.6803C6.40371 36.7056 7.29602 37.4704 8.27454 37.4708H30.7245C31.703 37.4708 32.5953 36.7056 32.5953 35.6807V20.6622H37.14C37.8989 20.6622 38.5682 20.2153 38.8537 19.5901C39.1391 18.9653 39.0073 18.1089 38.4403 17.5843L38.4239 17.5695L20.7998 2.03074C20.4418 1.70276 19.9729 1.5233 19.4874 1.52881ZM19.4999 11.0007C23.6339 11.0007 27.0203 14.3781 27.0203 18.5C27.0203 19.4926 26.8225 20.4419 26.4665 21.3112C26.3897 21.5404 26.2937 21.7627 26.1794 21.9757L20.4113 31.792C19.8022 32.6177 19.3154 32.7994 18.5826 31.8427L13.3527 22.8021C12.4597 21.5453 11.9798 20.0418 11.9795 18.5C11.9795 14.3777 15.3659 11.0003 19.4999 11.0003M19.4999 14.5142C17.2738 14.5142 15.5032 16.2798 15.5032 18.4997C15.5032 20.7195 17.2738 22.4851 19.4999 22.4851C21.726 22.4851 23.4966 20.7195 23.4966 18.5C23.4966 16.2802 21.726 14.515 19.4999 14.515" fill="#6E232F"/>
</svg>
