<svg width="43" height="43" viewBox="0 0 43 43" fill="none" xmlns="http://www.w3.org/2000/svg">
<path d="M21.4999 39.4167C31.3953 39.4167 39.4166 31.3954 39.4166 21.5C39.4166 11.6047 31.3953 3.58337 21.4999 3.58337C11.6045 3.58337 3.58325 11.6047 3.58325 21.5C3.58325 31.3954 11.6045 39.4167 21.4999 39.4167Z" stroke="#6E232F" stroke-width="3" stroke-linecap="round" stroke-linejoin="round"/>
<path d="M21.4999 20.6042C22.6879 20.6042 23.8272 20.1323 24.6672 19.2923C25.5072 18.4523 25.9791 17.313 25.9791 16.125C25.9791 14.9371 25.5072 13.7978 24.6672 12.9578C23.8272 12.1178 22.6879 11.6459 21.4999 11.6459C20.312 11.6459 19.1727 12.1178 18.3327 12.9578C17.4927 13.7978 17.0208 14.9371 17.0208 16.125C17.0208 17.313 17.4927 18.4523 18.3327 19.2923C19.1727 20.1323 20.312 20.6042 21.4999 20.6042Z" stroke="#6E232F" stroke-width="3" stroke-linejoin="round"/>
<path d="M8.97803 34.3392C9.28619 29.671 13.1705 25.9792 17.9167 25.9792H25.0833C29.8232 25.9792 33.7039 29.6611 34.0211 34.3204" stroke="#6E232F" stroke-width="3" stroke-linecap="round" stroke-linejoin="round"/>
</svg>
