<svg width="42" height="42" viewBox="0 0 42 42" fill="none" xmlns="http://www.w3.org/2000/svg">
<circle cx="21" cy="21" r="21" fill="#6E232F"/>
<path d="M21.0001 16.3333C18.4217 16.3333 16.3334 18.4216 16.3334 21C16.3334 23.5783 18.4217 25.6666 21.0001 25.6666C23.5784 25.6666 25.6667 23.5783 25.6667 21C25.6667 18.4216 23.5784 16.3333 21.0001 16.3333ZM31.4301 19.8333C30.8934 14.9683 27.0317 11.1066 22.1667 10.57V8.16663H19.8334V10.57C14.9684 11.1066 11.1067 14.9683 10.5701 19.8333H8.16675V22.1666H10.5701C11.1067 27.0316 14.9684 30.8933 19.8334 31.43V33.8333H22.1667V31.43C27.0317 30.8933 30.8934 27.0316 31.4301 22.1666H33.8334V19.8333H31.4301ZM21.0001 29.1666C16.4851 29.1666 12.8334 25.515 12.8334 21C12.8334 16.485 16.4851 12.8333 21.0001 12.8333C25.5151 12.8333 29.1667 16.485 29.1667 21C29.1667 25.515 25.5151 29.1666 21.0001 29.1666Z" fill="white"/>
</svg>
