<svg width="50" height="50" viewBox="0 0 50 50" fill="none" xmlns="http://www.w3.org/2000/svg">
<path d="M39.8438 32.8125H33.5938C33.1623 32.8125 32.8125 33.1623 32.8125 33.5938V39.8438C32.8125 40.2752 33.1623 40.625 33.5938 40.625H39.8438C40.2752 40.625 40.625 40.2752 40.625 39.8438V33.5938C40.625 33.1623 40.2752 32.8125 39.8438 32.8125Z" fill="#6E232F"/>
<path d="M32.0312 26.5625H27.3438C26.9123 26.5625 26.5625 26.9123 26.5625 27.3438V32.0312C26.5625 32.4627 26.9123 32.8125 27.3438 32.8125H32.0312C32.4627 32.8125 32.8125 32.4627 32.8125 32.0312V27.3438C32.8125 26.9123 32.4627 26.5625 32.0312 26.5625Z" fill="#6E232F"/>
<path d="M46.0938 40.625H41.4062C40.9748 40.625 40.625 40.9748 40.625 41.4062V46.0938C40.625 46.5252 40.9748 46.875 41.4062 46.875H46.0938C46.5252 46.875 46.875 46.5252 46.875 46.0938V41.4062C46.875 40.9748 46.5252 40.625 46.0938 40.625Z" fill="#6E232F"/>
<path d="M46.0938 26.5625H42.9688C42.5373 26.5625 42.1875 26.9123 42.1875 27.3438V30.4688C42.1875 30.9002 42.5373 31.25 42.9688 31.25H46.0938C46.5252 31.25 46.875 30.9002 46.875 30.4688V27.3438C46.875 26.9123 46.5252 26.5625 46.0938 26.5625Z" fill="#6E232F"/>
<path d="M30.4688 42.1875H27.3438C26.9123 42.1875 26.5625 42.5373 26.5625 42.9688V46.0938C26.5625 46.5252 26.9123 46.875 27.3438 46.875H30.4688C30.9002 46.875 31.25 46.5252 31.25 46.0938V42.9688C31.25 42.5373 30.9002 42.1875 30.4688 42.1875Z" fill="#6E232F"/>
<path d="M43.75 3.125H29.6875C28.8587 3.125 28.0638 3.45424 27.4778 4.04029C26.8917 4.62634 26.5625 5.4212 26.5625 6.25V20.3125C26.5625 21.1413 26.8917 21.9362 27.4778 22.5222C28.0638 23.1083 28.8587 23.4375 29.6875 23.4375H43.75C44.5788 23.4375 45.3737 23.1083 45.9597 22.5222C46.5458 21.9362 46.875 21.1413 46.875 20.3125V6.25C46.875 5.4212 46.5458 4.62634 45.9597 4.04029C45.3737 3.45424 44.5788 3.125 43.75 3.125ZM40.625 16.4062C40.625 16.6135 40.5427 16.8122 40.3962 16.9587C40.2497 17.1052 40.0509 17.1875 39.8438 17.1875H33.5938C33.3865 17.1875 33.1878 17.1052 33.0413 16.9587C32.8948 16.8122 32.8125 16.6135 32.8125 16.4062V10.1562C32.8125 9.94905 32.8948 9.75034 33.0413 9.60382C33.1878 9.45731 33.3865 9.375 33.5938 9.375H39.8438C40.0509 9.375 40.2497 9.45731 40.3962 9.60382C40.5427 9.75034 40.625 9.94905 40.625 10.1562V16.4062ZM20.3125 3.125H6.25C5.4212 3.125 4.62634 3.45424 4.04029 4.04029C3.45424 4.62634 3.125 5.4212 3.125 6.25V20.3125C3.125 21.1413 3.45424 21.9362 4.04029 22.5222C4.62634 23.1083 5.4212 23.4375 6.25 23.4375H20.3125C21.1413 23.4375 21.9362 23.1083 22.5222 22.5222C23.1083 21.9362 23.4375 21.1413 23.4375 20.3125V6.25C23.4375 5.4212 23.1083 4.62634 22.5222 4.04029C21.9362 3.45424 21.1413 3.125 20.3125 3.125ZM17.1875 16.4062C17.1875 16.6135 17.1052 16.8122 16.9587 16.9587C16.8122 17.1052 16.6135 17.1875 16.4062 17.1875H10.1562C9.94905 17.1875 9.75034 17.1052 9.60382 16.9587C9.45731 16.8122 9.375 16.6135 9.375 16.4062V10.1562C9.375 9.94905 9.45731 9.75034 9.60382 9.60382C9.75034 9.45731 9.94905 9.375 10.1562 9.375H16.4062C16.6135 9.375 16.8122 9.45731 16.9587 9.60382C17.1052 9.75034 17.1875 9.94905 17.1875 10.1562V16.4062ZM20.3125 26.5625H6.25C5.4212 26.5625 4.62634 26.8917 4.04029 27.4778C3.45424 28.0638 3.125 28.8587 3.125 29.6875V43.75C3.125 44.5788 3.45424 45.3737 4.04029 45.9597C4.62634 46.5458 5.4212 46.875 6.25 46.875H20.3125C21.1413 46.875 21.9362 46.5458 22.5222 45.9597C23.1083 45.3737 23.4375 44.5788 23.4375 43.75V29.6875C23.4375 28.8587 23.1083 28.0638 22.5222 27.4778C21.9362 26.8917 21.1413 26.5625 20.3125 26.5625ZM17.1875 39.8438C17.1875 40.0509 17.1052 40.2497 16.9587 40.3962C16.8122 40.5427 16.6135 40.625 16.4062 40.625H10.1562C9.94905 40.625 9.75034 40.5427 9.60382 40.3962C9.45731 40.2497 9.375 40.0509 9.375 39.8438V33.5938C9.375 33.3865 9.45731 33.1878 9.60382 33.0413C9.75034 32.8948 9.94905 32.8125 10.1562 32.8125H16.4062C16.6135 32.8125 16.8122 32.8948 16.9587 33.0413C17.1052 33.1878 17.1875 33.3865 17.1875 33.5938V39.8438Z" fill="#6E232F"/>
</svg>
